<?xml version="1.0" encoding="UTF-8"?>
<svg id="Layer_1" data-name="Layer 1" xmlns="http://www.w3.org/2000/svg" viewBox="0 0 388.21 295.54">
  <defs>
    <style>
      .cls-1 {
        fill: #52ae32;
      }

      .cls-1, .cls-2 {
        stroke-width: 0px;
      }

      .cls-2 {
        fill: #1c203d;
      }
    </style>
  </defs>
  <g>
    <path class="cls-2" d="m.1,198.2h9.3v-57.3H.1v-1.2h48v14.5h-1c-.7-2.2-1.5-4.1-2.3-5.7s-1.8-3-3-4.2c-1.2-1.1-2.6-2-4.2-2.6-1.6-.6-3.6-.8-5.9-.8h-13.9v27.1h5.4c1.8,0,3.4-.2,4.7-.5s2.4-1,3.3-1.9c.9-.9,1.7-2.2,2.3-3.8.6-1.6,1.3-3.6,1.9-6.2h.9v26.1h-.9c-.4-1.6-.8-3.2-1.2-4.7s-1-2.8-1.8-4-1.8-2.1-3-2.8-2.9-1-4.9-1h-6.8v29h9.3v1.2H0v-1.2h.1Z"/>
    <path class="cls-2" d="m82.2,198.4c-.7.6-1.6,1-2.6,1.5-1,.4-2.2.6-3.7.6-2.7,0-4.6-.6-5.8-1.7-1.2-1.1-2-2.8-2.5-4.8h-.2c-.2.5-.5,1.1-.9,1.9s-1,1.5-1.8,2.2-1.9,1.3-3.2,1.8c-1.3.5-3,.7-5.1.7-2.3,0-4.2-.3-5.6-.8s-2.5-1.2-3.3-2-1.3-1.7-1.5-2.6c-.3-1-.4-1.9-.4-2.7,0-2,.4-3.5,1.2-4.7.8-1.2,1.8-2.1,3.1-2.8,1.3-.7,2.7-1.3,4.2-1.7,1.5-.4,3.1-.9,4.6-1.4,1.8-.6,3.4-1.1,4.6-1.6,1.2-.4,2.1-1,2.8-1.6.7-.6,1.1-1.5,1.4-2.4.3-1,.4-2.3.4-4,0-1.3-.1-2.5-.3-3.6-.2-1.1-.5-2-.9-2.7-.4-.8-1.1-1.3-1.9-1.7-.8-.4-2-.6-3.4-.6-1.8,0-3.4.3-4.6,1-1.2.6-1.8,1.7-1.8,3.1,0,1,.1,1.9.3,2.8.2.9.3,1.6.3,2.1,0,.8-.3,1.4-.8,2-.6.5-1.4.8-2.4.8-1.8,0-3-.3-3.4-1s-.7-1.5-.7-2.6c0-1.2.3-2.4.8-3.5.6-1.1,1.4-2.1,2.5-3s2.5-1.5,4.1-2.1c1.6-.5,3.5-.8,5.7-.8,2.6,0,4.7.3,6.5,1,1.7.6,3.1,1.5,4.2,2.6s1.8,2.3,2.3,3.7c.4,1.4.7,2.8.7,4.3v20.9c0,1.6.3,2.7.8,3.3.5.6,1.2.8,2.2.8.6,0,1.3-.1,1.9-.3.7-.2,1.3-.6,1.9-1l.3.6Zm-14.6-19.6h-.2c-.1.7-1,1.5-2.8,2.2l-6.3,2.5c-1.8.7-3.2,1.7-4.1,3.1-1,1.3-1.4,2.9-1.4,4.9,0,.8.1,1.7.3,2.6.2.9.5,1.7.9,2.4.4.7,1.1,1.3,1.9,1.7.8.4,1.9.7,3.1.7,1.8,0,3.3-.4,4.5-1.2,1.1-.8,2-1.8,2.6-2.9.6-1.2,1-2.4,1.2-3.8s.3-2.6.3-3.7v-8.5Z"/>
    <path class="cls-2" d="m80.1,163.4h20.3v1.2h-6.9l10.8,26.3,11.2-26.3h-6.9v-1.2h12.7v1.2h-4.5l-15.7,37.5-15.2-37.5h-5.8v-1.2Z"/>
    <path class="cls-2" d="m123.2,181.4c0-2.7.6-5.3,1.8-7.6,1.2-2.3,2.7-4.4,4.6-6.1s4-3,6.3-4c2.3-.9,4.6-1.4,6.8-1.4s4.5.5,6.8,1.4c2.3,1,4.4,2.3,6.3,4s3.4,3.7,4.6,6.1c1.2,2.3,1.8,4.9,1.8,7.6s-.6,5.1-1.7,7.4-2.6,4.3-4.4,6.1c-1.8,1.7-3.9,3.1-6.2,4.1-2.3,1-4.7,1.5-7.2,1.5s-4.9-.5-7.2-1.5c-2.3-1-4.4-2.4-6.2-4.1-1.8-1.7-3.3-3.8-4.4-6.1s-1.7-4.8-1.7-7.4Zm8.4,0c0,4,.3,7.1.9,9.5.6,2.3,1.4,4.1,2.4,5.4s2.2,2.1,3.5,2.5,2.8.6,4.3.6,2.9-.2,4.3-.6c1.3-.4,2.5-1.2,3.5-2.5s1.8-3.1,2.4-5.4.9-5.5.9-9.5c0-3.4-.2-6.2-.7-8.4-.4-2.3-1.1-4.1-2.1-5.5-.9-1.4-2.1-2.4-3.5-3.1-1.4-.6-3-.9-4.9-.9s-3.5.3-4.9.9-2.6,1.6-3.5,3.1c-.9,1.4-1.6,3.3-2.1,5.5-.3,2.2-.5,5-.5,8.4Z"/>
    <path class="cls-2" d="m212,199.3h-13.5v-8.5h-.2c-.5,1.1-1.1,2.2-1.8,3.4-.7,1.1-1.6,2.2-2.6,3.1s-2.2,1.7-3.6,2.3c-1.4.6-3,.9-4.8.9-2.2,0-4-.3-5.4-.8s-2.5-1-3.3-1.6c-.4-.3-.8-.6-1.3-1s-.9-1-1.3-1.7-.7-1.7-1-2.8c-.3-1.1-.4-2.6-.4-4.2v-23.8h-6.5v-1.2h13.7v25.7c0,1.5.1,2.8.3,4,.2,1.2.6,2.3,1.1,3.2.6.9,1.3,1.6,2.2,2.2.9.5,2.1.8,3.5.8,1.2,0,2.5-.4,3.8-1.1s2.5-1.8,3.6-3.1c1.1-1.3,2-2.9,2.7-4.8s1.1-4,1.1-6.3v-19.4h-6.4v-1.2h13.6v34.8h6.5v1.1h0Z"/>
    <path class="cls-2" d="m216.3,198.2h6.5v-33.6h-6.5v-1.2h13.5v8.5h.2c.2-.8.6-1.8,1.1-2.8.5-1.1,1.2-2.1,2.1-3.1s2-1.8,3.2-2.5c1.3-.7,2.8-1,4.6-1,1.3,0,2.4.2,3.4.6.9.4,1.7,1,2.3,1.6.6.6,1.1,1.4,1.3,2.2.3.8.4,1.7.4,2.5,0,1.8-.4,3.1-1.3,3.7-.8.6-1.8.9-2.9.9-2.5,0-3.7-.8-3.7-2.3,0-.5.1-.9.2-1.2.1-.3.2-.6.4-.9.1-.3.3-.7.4-1,.1-.4.2-.9.2-1.7,0-1.8-1-2.7-2.9-2.7-.9,0-1.8.3-2.8,1s-1.9,1.6-2.8,2.9-1.6,2.8-2.2,4.6c-.6,1.8-.9,3.9-.9,6.2v19.2h7.3v1.2h-20.9v-1.1h-.2Z"/>
    <path class="cls-2" d="m251.3,198.2h6.5v-33.6h-6.5v-1.2h13.7v34.8h6.5v1.2h-20.1v-1.2h-.1Zm5.4-54.3c0-1.2.4-2.3,1.3-3.1.9-.9,1.9-1.3,3.1-1.3s2.3.4,3.1,1.3c.9.9,1.3,1.9,1.3,3.1s-.4,2.3-1.3,3.1c-.9.9-1.9,1.3-3.1,1.3s-2.3-.4-3.1-1.3c-.8-.9-1.3-1.9-1.3-3.1Z"/>
    <path class="cls-2" d="m274.3,163.4h6.5v-10.8c.4.2.9.3,1.3.4s1.1.2,2,.2c.8,0,1.6-.1,2.2-.3.6-.2,1.2-.5,1.8-1v11.5h11.9v1.2h-11.9v27.4c0,1.6.2,2.8.5,3.8s.7,1.7,1.2,2.3c.5.5,1,.9,1.6,1,.6.2,1.2.3,1.7.3,2,0,3.5-.7,4.7-2.1s2-3.1,2.3-4.9l1.2.4c-.2.7-.4,1.5-.8,2.4-.3.9-.9,1.7-1.5,2.6-.7.8-1.6,1.5-2.7,2s-2.5.8-4.2.8c-4.2,0-7.1-.8-8.8-2.4-1.6-1.6-2.5-3.9-2.5-6.9v-26.6h-6.5v-1.3h0Z"/>
    <path class="cls-2" d="m312.2,178.6v3.9c0,1.8.1,3.8.3,5.8s.7,3.8,1.5,5.4,1.9,3,3.4,4c1.5,1.1,3.4,1.6,5.9,1.6s4.5-.4,6.1-1.1,2.8-1.6,3.8-2.6c.9-1,1.6-2.1,2.1-3.1.4-1.1.8-1.9,1-2.6l1.3.3c-.2.6-.5,1.5-1,2.6s-1.2,2.3-2.3,3.4c-1,1.1-2.4,2.2-4.2,3s-4,1.3-6.8,1.3-5.4-.4-7.7-1.3c-2.4-.9-4.4-2.2-6.2-3.9-1.7-1.7-3.1-3.7-4-6-1-2.3-1.4-4.9-1.4-7.7,0-2.5.5-4.8,1.5-7.2,1-2.3,2.3-4.4,4-6.2,1.7-1.8,3.7-3.2,6-4.3,2.3-1.1,4.7-1.6,7.4-1.6,1.6,0,3.2.3,5,.8,1.8.6,3.4,1.5,5,2.7,1.5,1.3,2.8,2.9,3.9,5,1,2.1,1.5,4.6,1.5,7.7h-26.1v.1Zm17.2-1.2c.1-.8.2-1.5.2-2.2v-2.1c0-1.9-.2-3.5-.5-4.7-.4-1.2-.9-2.2-1.5-2.9-.6-.7-1.4-1.2-2.3-1.5-.9-.3-1.9-.5-3-.5-1.9,0-3.5.4-4.7,1.1-1.2.8-2.2,1.8-2.9,3.1-.7,1.3-1.3,2.8-1.6,4.4-.4,1.7-.6,3.4-.7,5.3h17Z"/>
  </g>
  <g>
    <polyline class="cls-1" points="380.2 25.7 219.9 25.5 220.6 134 214.6 134 214.6 .1 380.2 0"/>
    <path class="cls-1" d="m220.6,134l14.1-8.1c8.9-4.8,21.1-10.1,36.3-12.5,5-.8,9.8-1.2,14.1-1.3,3.2,0,7.4,0,12.3.2,6.6.3,12.6.6,20.1,2.1,3.2.6,7.4,1.6,12.1,3.2,5.5,1.8,14.6,4.9,24.7,12.1,2.9,2.1,8.7,6.5,14.7,13.4,3.2,3.7,7.6,8.8,11.2,16.7,3.1,6.7,4.2,12.5,5.7,19.2.7,3.2,1.4,7.3,1.9,12.1.9,9.8.1,17.4-.3,19.8-2.1,14.7-8.9,29.6-8.9,29.6h0c-3.7,7.2-10.3,17.9-21.5,28.1-2.4,2.2-13.1,12-30.3,19.1-14.3,5.8-27,7.4-35.4,7.7-.3,0-.6.1-.9.1h0c-8,.2-20.6-.2-33.9-3.1-9-2-15.4-4.5-16.8-5.1-7.4-3-12.6-6.1-13.8-6.8-14.3-8.2-24-22.9-24-22.9,0,0-7.3-9.4-4.7-23.3s12.5-18.1,12.5-18.1c0,0,10.1-6.4,21.7.7,5.4,3.7,6.9,6.9,8.8,15.4.7,9.1-1.9,14.6-6.7,20.5-4.8,5.9-12.1,8.8-12.1,8.8.8,2.3,2.1,5.6,4.7,9,4.2,5.6,9.4,8.3,17.3,12.4,3.1,1.6,6,2.9,6.4,3,2.2.9,4,1.6,4.9,1.9,0,0,3.3,1.2,6.7,2,4.2,1.1,11.8,2.2,21.6,2.4,0,0,11.5.1,20.1-1.8,1.9-.4,3.7-1,3.7-1,1.6-.5,8.7-2.5,16.4-8.1,4.4-3.2,10.7-8.6,16.4-16.8,5.5-8,7.8-15.1,10.2-22.8,2-6.1,3.7-13.3,4.7-21.5,1.2-9.6.9-16.9.6-22.6-.5-10.6-2-18.5-2.6-21.6-.7-4.1-1.9-9.5-4.1-15.5-.8-2.3-2.6-7.1-5.6-12.3-2.7-4.7-9-15.6-21.5-23.1-7.8-4.7-14.8-6.2-20.1-7.3-16.6-3.5-30.2-.6-36.6.8-6.3,1.4-11.4,3.2-15,4.6-5,2.5-10.1,5-15.1,7.6-4.8,2.8-9.5,5.5-14.3,8.3l-5.8-.1v-5.1h6.1Z"/>
  </g>
</svg>