<?xml version="1.0" encoding="UTF-8"?>
<svg id="Layer_2" data-name="Layer 2" xmlns="http://www.w3.org/2000/svg" viewBox="0 0 692.06 433.34">
  <defs>
    <style>
      .cls-1, .cls-2 {
        stroke-width: 0px;
      }

      .cls-2 {
        fill: #6c603c;
      }
    </style>
  </defs>
  <g>
    <path class="cls-1" d="m58.93,102.18h.16L97.28,7.74h17.73v114.1h-11.6V22.72h-.32l-41.26,99.12h-6.12L14.44,22.72h-.32v99.12H2.52V7.74h17.73l38.68,94.44Z"/>
    <path class="cls-1" d="m213.32,81.87v2.42c0,.86-.06,1.77-.16,2.74h-62.53c.11,3.76.86,7.31,2.26,10.64,1.4,3.33,3.33,6.23,5.8,8.7,2.47,2.47,5.37,4.43,8.7,5.88,3.33,1.45,6.93,2.18,10.8,2.18,5.69,0,10.61-1.31,14.75-3.95,4.13-2.63,7.28-5.67,9.43-9.11l8.22,6.45c-4.51,5.7-9.48,9.78-14.91,12.25-5.43,2.47-11.26,3.71-17.49,3.71-5.59,0-10.77-.99-15.55-2.98-4.78-1.99-8.89-4.75-12.33-8.3-3.44-3.55-6.15-7.74-8.14-12.57-1.99-4.83-2.98-10.1-2.98-15.79s.97-10.96,2.9-15.79c1.93-4.83,4.62-9.03,8.06-12.57,3.44-3.55,7.47-6.31,12.09-8.3,4.62-1.99,9.61-2.98,14.99-2.98,5.91,0,11.12.99,15.63,2.98,4.51,1.99,8.27,4.67,11.28,8.06,3.01,3.38,5.29,7.33,6.85,11.85,1.56,4.51,2.34,9.35,2.34,14.5Zm-11.12-3.55c-.32-7.09-2.61-12.97-6.85-17.65-4.25-4.67-10.29-7.01-18.13-7.01-3.65,0-7.04.67-10.15,2.01-3.12,1.34-5.86,3.17-8.22,5.48-2.36,2.31-4.25,4.94-5.64,7.9-1.4,2.96-2.2,6.04-2.42,9.27h51.41Z"/>
    <path class="cls-1" d="m262.79,110.07h.32l23.37-63.66h11.93l-37.55,94.93c-2.26,5.8-5.13,10.45-8.62,13.94-3.49,3.49-8.52,5.24-15.07,5.24-3.33,0-6.61-.32-9.83-.97l1.13-9.99c2.58.86,5.26,1.29,8.06,1.29,3.76,0,6.71-1.16,8.86-3.46,2.15-2.31,4.03-5.62,5.64-9.91l6.12-15.79-32.23-75.26h12.25l25.62,63.66Z"/>
    <path class="cls-1" d="m326.77,121.84h-10.96V0h10.96v121.84Z"/>
    <path class="cls-1" d="m424.76,81.87v2.42c0,.86-.05,1.77-.16,2.74h-62.53c.11,3.76.86,7.31,2.26,10.64,1.4,3.33,3.33,6.23,5.8,8.7,2.47,2.47,5.37,4.43,8.7,5.88,3.33,1.45,6.93,2.18,10.8,2.18,5.69,0,10.61-1.31,14.75-3.95,4.13-2.63,7.28-5.67,9.43-9.11l8.22,6.45c-4.51,5.7-9.48,9.78-14.91,12.25-5.43,2.47-11.26,3.71-17.49,3.71-5.59,0-10.77-.99-15.55-2.98-4.78-1.99-8.89-4.75-12.33-8.3-3.44-3.55-6.15-7.74-8.14-12.57-1.99-4.83-2.98-10.1-2.98-15.79s.97-10.96,2.9-15.79c1.93-4.83,4.62-9.03,8.06-12.57,3.44-3.55,7.47-6.31,12.09-8.3,4.62-1.99,9.61-2.98,14.99-2.98,5.91,0,11.12.99,15.63,2.98,4.51,1.99,8.27,4.67,11.28,8.06,3.01,3.38,5.29,7.33,6.85,11.85,1.56,4.51,2.34,9.35,2.34,14.5Zm-11.12-3.55c-.32-7.09-2.61-12.97-6.85-17.65-4.25-4.67-10.29-7.01-18.13-7.01-3.65,0-7.04.67-10.15,2.01-3.12,1.34-5.86,3.17-8.22,5.48-2.37,2.31-4.25,4.94-5.64,7.9-1.4,2.96-2.2,6.04-2.42,9.27h51.41Z"/>
    <path class="cls-1" d="m448.13,55.12c-.11-3.22-.27-6.12-.48-8.7h10.48c.21,2.04.38,4.3.48,6.77.11,2.47.16,4.51.16,6.12h.32c2.15-4.4,5.37-7.98,9.67-10.72,4.3-2.74,9.13-4.11,14.5-4.11,1.39,0,2.66.06,3.79.16,1.13.11,2.28.32,3.46.64l-1.45,10.48c-.64-.21-1.72-.43-3.22-.64-1.51-.21-3.01-.32-4.51-.32-2.9,0-5.7.54-8.38,1.61-2.69,1.07-5.02,2.76-7.01,5.06-1.99,2.3-3.6,5.25-4.83,8.84-1.24,3.59-1.85,7.91-1.85,12.94v38.59h-10.96v-58.82c0-2.04-.06-4.67-.16-7.9Z"/>
  </g>
  <g>
    <path class="cls-1" d="m101.59,260.87c-1.92,2.9-4.25,5.64-6.97,8.23-2.72,2.58-5.88,4.86-9.45,6.82-3.58,1.96-7.53,3.52-11.86,4.67-4.33,1.14-9.05,1.72-14.18,1.72-8.55,0-16.45-1.51-23.71-4.51-7.27-3.01-13.52-7.17-18.75-12.49-5.23-5.32-9.32-11.63-12.26-18.94-2.94-7.31-4.41-15.31-4.41-24.01s1.49-16.71,4.49-24.01c2.99-7.31,7.13-13.62,12.42-18.94,5.29-5.32,11.54-9.48,18.75-12.49,7.21-3.01,15.03-4.51,23.47-4.51,4.17,0,8.25.44,12.26,1.31,4.01.87,7.77,2.1,11.3,3.68,3.52,1.58,6.73,3.48,9.61,5.7,2.88,2.22,5.29,4.72,7.21,7.52l-9.61,7.09c-1.18-1.83-2.75-3.65-4.73-5.48-1.98-1.83-4.3-3.44-6.97-4.83-2.67-1.4-5.58-2.52-8.73-3.38-3.15-.86-6.54-1.29-10.18-1.29-7.37,0-13.97,1.34-19.79,4.02-5.82,2.68-10.76,6.29-14.82,10.84-4.06,4.55-7.16,9.83-9.29,15.82-2.14,6-3.2,12.32-3.2,18.95s1.09,12.96,3.28,18.96c2.19,6,5.31,11.27,9.37,15.82,4.06,4.55,9,8.17,14.82,10.84,5.82,2.68,12.36,4.02,19.63,4.02,6.51,0,12.71-1.34,18.59-4.03,5.87-2.68,10.79-6.98,14.74-12.89l8.97,5.8Z"/>
    <path class="cls-1" d="m165.2,230.59c0-6.5-1.71-11.36-5.13-14.56-3.42-3.2-8.39-4.8-14.9-4.8-4.49,0-8.65.81-12.5,2.42-3.85,1.61-7.11,3.76-9.77,6.45l-6.09-7.25c3.1-3.12,7.18-5.69,12.26-7.74,5.07-2.04,10.82-3.06,17.23-3.06,4.06,0,7.85.56,11.38,1.69,3.53,1.13,6.62,2.82,9.29,5.08,2.67,2.26,4.75,5.1,6.25,8.54,1.49,3.44,2.24,7.47,2.24,12.09v33.04c0,2.9.11,5.91.32,9.02.21,3.12.53,5.75.96,7.9h-9.77c-.32-1.83-.59-3.81-.8-5.96-.22-2.15-.32-4.24-.32-6.29h-.32c-3.42,5.05-7.29,8.68-11.62,10.88-4.33,2.2-9.53,3.3-15.62,3.3-2.88,0-5.85-.41-8.89-1.21-3.04-.81-5.82-2.13-8.33-3.96-2.51-1.83-4.59-4.21-6.25-7.12-1.66-2.91-2.48-6.47-2.48-10.67,0-5.82,1.47-10.43,4.41-13.83,2.94-3.39,6.86-5.93,11.78-7.6,4.91-1.67,10.55-2.75,16.9-3.24,6.35-.48,12.95-.73,19.79-.73v-2.4Zm-3.21,11.1c-4.49,0-9,.19-13.54.56-4.54.38-8.65,1.13-12.34,2.26-3.69,1.13-6.71,2.77-9.05,4.92-2.35,2.15-3.52,5-3.52,8.54,0,2.69.51,4.94,1.52,6.77,1.01,1.83,2.38,3.3,4.09,4.43,1.71,1.13,3.61,1.93,5.69,2.42,2.08.48,4.19.73,6.33.73,3.85,0,7.26-.67,10.25-2.01,2.99-1.34,5.5-3.17,7.53-5.48,2.03-2.31,3.58-4.97,4.65-7.98,1.07-3.01,1.6-6.18,1.6-9.51v-5.64h-3.21Z"/>
    <path class="cls-1" d="m224.09,206.15c4.43-2.74,9.37-4.11,14.82-4.11,2.03,0,4.14.22,6.33.64,2.19.43,4.33,1.26,6.41,2.5,2.08,1.24,4.01,2.88,5.77,4.92,1.76,2.04,3.28,4.67,4.57,7.9,2.56-5.16,6.06-9.11,10.5-11.85,4.43-2.74,9.69-4.11,15.78-4.11,9.51,0,16.64,2.85,21.39,8.54,4.75,5.7,7.13,13.22,7.13,22.56v46.25h-10.9v-41.74c0-7.95-1.47-14.34-4.41-19.18-2.94-4.83-7.93-7.25-14.98-7.25-3.95,0-7.29.81-10.02,2.42-2.72,1.61-4.91,3.73-6.57,6.37-1.66,2.63-2.86,5.62-3.61,8.94-.75,3.33-1.12,6.77-1.12,10.31v40.13h-10.9v-44c0-3.65-.27-6.98-.8-9.99-.54-3.01-1.47-5.56-2.8-7.65-1.34-2.1-3.18-3.71-5.53-4.83-2.35-1.13-5.34-1.69-8.97-1.69-2.56,0-5.16.59-7.77,1.77-2.62,1.18-4.97,2.98-7.05,5.4-2.08,2.42-3.77,5.48-5.05,9.19-1.28,3.71-1.92,8.09-1.92,13.13v38.68h-10.9v-58.82c0-2.04-.06-4.67-.16-7.9-.11-3.22-.27-6.12-.48-8.7h10.42c.21,2.04.37,4.3.48,6.77.11,2.47.16,4.51.16,6.12h.32c2.14-4.4,5.42-7.98,9.85-10.72Z"/>
    <path class="cls-1" d="m355.88,318.08h-10.9v-114.1h10.9v13.05h.48c3.1-4.94,7.24-8.67,12.42-11.2,5.18-2.52,10.44-3.79,15.78-3.79,5.87,0,11.19,1.02,15.94,3.06,4.75,2.04,8.81,4.83,12.18,8.38s5.98,7.74,7.85,12.57c1.87,4.83,2.8,10.05,2.8,15.63s-.94,10.8-2.8,15.63c-1.87,4.83-4.49,9.02-7.85,12.57s-7.43,6.34-12.18,8.38c-4.76,2.04-10.07,3.06-15.94,3.06-5.34,0-10.6-1.26-15.78-3.79-5.18-2.52-9.32-6.15-12.42-10.88h-.48v51.41Zm55.92-76.39c0-4.19-.64-8.14-1.92-11.85-1.28-3.71-3.12-6.93-5.53-9.67-2.4-2.74-5.37-4.92-8.89-6.53-3.53-1.61-7.53-2.42-12.02-2.42-4.17,0-8.01.78-11.54,2.34-3.52,1.56-6.57,3.71-9.13,6.45s-4.57,5.96-6.01,9.67c-1.44,3.71-2.16,7.71-2.16,12.01s.72,8.3,2.16,12.01c1.44,3.71,3.44,6.91,6.01,9.59,2.56,2.69,5.61,4.81,9.13,6.37,3.53,1.56,7.37,2.34,11.54,2.34,4.49,0,8.49-.78,12.02-2.34,3.52-1.56,6.49-3.71,8.89-6.45,2.4-2.74,4.25-5.96,5.53-9.67,1.28-3.71,1.92-7.66,1.92-11.84Z"/>
    <path class="cls-1" d="m457.95,266.67v12.73h-10.9v-121.84h10.9v59.47h.32c3.21-4.94,7.37-8.67,12.5-11.2,5.13-2.52,10.42-3.79,15.86-3.79,5.87,0,11.19,1.02,15.94,3.06,4.75,2.04,8.81,4.83,12.18,8.38,3.36,3.55,5.98,7.74,7.85,12.57,1.87,4.83,2.8,10.05,2.8,15.63s-.94,10.8-2.8,15.63c-1.87,4.83-4.49,9.02-7.85,12.57-3.37,3.55-7.43,6.34-12.18,8.38-4.75,2.04-10.07,3.06-15.94,3.06-5.45,0-10.74-1.24-15.86-3.71-5.13-2.47-9.29-6.12-12.5-10.96h-.32Zm55.92-24.98c0-4.19-.64-8.14-1.92-11.85-1.28-3.71-3.12-6.93-5.53-9.67-2.4-2.74-5.37-4.92-8.89-6.53-3.53-1.61-7.53-2.42-12.02-2.42-4.17,0-8.01.78-11.54,2.34-3.53,1.56-6.57,3.71-9.13,6.45-2.56,2.74-4.57,5.96-6.01,9.67-1.44,3.71-2.16,7.71-2.16,12.01s.72,8.3,2.16,12.01c1.44,3.71,3.44,6.91,6.01,9.59,2.56,2.69,5.61,4.81,9.13,6.37,3.52,1.56,7.37,2.34,11.54,2.34,4.49,0,8.49-.78,12.02-2.34,3.53-1.56,6.49-3.71,8.89-6.45,2.4-2.74,4.25-5.96,5.53-9.67,1.28-3.71,1.92-7.66,1.92-11.84Z"/>
    <path class="cls-1" d="m617.07,239.43v2.42c0,.86-.06,1.77-.16,2.74h-62.17c.1,3.76.85,7.31,2.24,10.64,1.39,3.33,3.31,6.23,5.77,8.7,2.46,2.47,5.34,4.43,8.65,5.88,3.31,1.45,6.89,2.18,10.74,2.18,5.66,0,10.55-1.31,14.66-3.95,4.11-2.63,7.24-5.67,9.37-9.11l8.17,6.45c-4.49,5.7-9.43,9.78-14.82,12.25-5.4,2.47-11.19,3.71-17.39,3.71-5.56,0-10.71-.99-15.46-2.98-4.75-1.99-8.84-4.75-12.26-8.3-3.42-3.55-6.12-7.74-8.09-12.57-1.98-4.83-2.96-10.1-2.96-15.79s.96-10.96,2.88-15.79c1.92-4.83,4.59-9.02,8.01-12.57,3.42-3.55,7.42-6.31,12.02-8.3,4.59-1.99,9.56-2.98,14.9-2.98,5.87,0,11.06.99,15.54,2.98,4.49,1.99,8.22,4.67,11.22,8.06,2.99,3.38,5.26,7.33,6.81,11.85,1.55,4.51,2.32,9.35,2.32,14.5Zm-11.06-3.55c-.32-7.09-2.59-12.97-6.81-17.65-4.22-4.67-10.23-7.01-18.03-7.01-3.63,0-7,.67-10.09,2.01-3.1,1.34-5.82,3.17-8.17,5.48-2.35,2.31-4.22,4.94-5.61,7.9-1.39,2.96-2.19,6.04-2.4,9.27h51.12Z"/>
    <path class="cls-1" d="m651.68,279.4h-10.9v-121.84h10.9v121.84Z"/>
    <path class="cls-1" d="m692.06,279.4h-10.9v-121.84h10.9v121.84Z"/>
  </g>
  <g>
    <path class="cls-2" d="m59.84,411.74h.16l38.2-94.44h17.73v114.1h-11.6v-99.12h-.32l-41.26,99.12h-6.12l-41.26-99.12h-.32v99.12H3.44v-114.1h17.73l38.68,94.44Z"/>
    <path class="cls-2" d="m193.12,382.59c0-6.5-1.72-11.36-5.16-14.56-3.44-3.2-8.44-4.8-14.99-4.8-4.51,0-8.7.81-12.57,2.42-3.87,1.61-7.15,3.76-9.83,6.45l-6.12-7.25c3.12-3.12,7.22-5.69,12.33-7.74,5.1-2.04,10.88-3.06,17.33-3.06,4.08,0,7.9.56,11.44,1.69,3.55,1.13,6.66,2.82,9.35,5.08,2.68,2.26,4.78,5.1,6.29,8.54,1.5,3.44,2.26,7.47,2.26,12.09v33.04c0,2.9.11,5.91.32,9.03.21,3.12.54,5.75.97,7.9h-9.83c-.32-1.83-.59-3.81-.81-5.96-.22-2.15-.32-4.24-.32-6.29h-.32c-3.44,5.05-7.33,8.68-11.68,10.88-4.35,2.2-9.59,3.3-15.71,3.3-2.9,0-5.88-.41-8.94-1.21-3.06-.81-5.86-2.13-8.38-3.96-2.53-1.83-4.62-4.21-6.29-7.12-1.67-2.91-2.5-6.47-2.5-10.67,0-5.82,1.48-10.43,4.43-13.83,2.95-3.39,6.9-5.93,11.85-7.6,4.94-1.67,10.61-2.75,17-3.24,6.39-.48,13.03-.73,19.9-.73v-2.4Zm-3.22,11.1c-4.51,0-9.05.19-13.62.56-4.57.38-8.7,1.13-12.41,2.26-3.71,1.13-6.74,2.77-9.11,4.92-2.36,2.15-3.55,5-3.55,8.54,0,2.69.51,4.94,1.53,6.77,1.02,1.83,2.39,3.3,4.11,4.43,1.72,1.13,3.63,1.93,5.72,2.42,2.1.48,4.22.73,6.37.73,3.87,0,7.31-.67,10.31-2.01,3.01-1.34,5.53-3.17,7.57-5.48,2.04-2.31,3.6-4.97,4.67-7.98,1.07-3.01,1.61-6.18,1.61-9.51v-5.64h-3.22Z"/>
    <path class="cls-2" d="m271.77,373.87c-1.61-3.12-4.06-5.67-7.33-7.66-3.28-1.99-7.01-2.98-11.2-2.98-1.93,0-3.87.22-5.8.64-1.93.43-3.65,1.13-5.16,2.09-1.51.97-2.71,2.2-3.63,3.71-.91,1.51-1.37,3.28-1.37,5.32,0,3.55,1.45,6.26,4.35,8.14,2.9,1.88,7.47,3.46,13.7,4.75,8.92,1.83,15.5,4.49,19.74,7.98,4.24,3.49,6.37,8.19,6.37,14.1,0,4.3-.83,7.92-2.5,10.88-1.67,2.96-3.84,5.37-6.53,7.25-2.69,1.88-5.72,3.22-9.11,4.03s-6.8,1.21-10.23,1.21c-5.7,0-11.23-1.18-16.6-3.55-5.37-2.36-9.78-6.07-13.22-11.12l8.7-6.45c1.93,3.33,4.78,6.12,8.54,8.38,3.76,2.26,7.9,3.38,12.41,3.38,2.36,0,4.62-.21,6.77-.64,2.15-.43,4.03-1.18,5.64-2.26,1.61-1.07,2.9-2.44,3.87-4.11.97-1.67,1.45-3.73,1.45-6.21,0-3.97-1.91-6.96-5.72-8.94-3.81-1.99-9.32-3.84-16.52-5.56-2.26-.54-4.65-1.21-7.17-2.01-2.53-.81-4.86-1.99-7.01-3.54-2.15-1.56-3.92-3.52-5.32-5.88-1.4-2.36-2.1-5.32-2.1-8.86,0-3.87.75-7.17,2.26-9.91,1.5-2.74,3.52-5,6.04-6.77,2.52-1.77,5.4-3.09,8.62-3.95,3.22-.86,6.55-1.29,9.99-1.29,5.26,0,10.37,1.18,15.31,3.55,4.94,2.36,8.65,5.7,11.12,9.99l-8.38,6.29Z"/>
    <path class="cls-2" d="m337.2,365.16h-21.27v44c0,2.79.27,5.1.81,6.93.54,1.83,1.31,3.25,2.34,4.27,1.02,1.02,2.23,1.72,3.63,2.09,1.4.38,2.9.56,4.51.56,1.5,0,3.09-.21,4.75-.65,1.66-.43,3.25-1.02,4.75-1.77l.48,9.51c-1.93.75-3.95,1.31-6.04,1.69-2.1.38-4.38.56-6.85.56-2.04,0-4.19-.27-6.45-.81-2.26-.54-4.35-1.56-6.29-3.06-1.93-1.5-3.52-3.55-4.75-6.12-1.24-2.58-1.85-5.96-1.85-10.15v-47.06h-15.63v-9.19h15.63v-21.27h10.96v21.27h21.27v9.19Z"/>
    <path class="cls-2" d="m422.94,391.43v2.42c0,.86-.05,1.77-.16,2.74h-62.53c.11,3.76.86,7.31,2.26,10.64,1.39,3.33,3.33,6.23,5.8,8.7,2.47,2.47,5.37,4.43,8.7,5.88s6.93,2.18,10.8,2.18c5.69,0,10.61-1.31,14.75-3.95,4.13-2.63,7.28-5.67,9.43-9.11l8.22,6.45c-4.51,5.7-9.48,9.78-14.91,12.25-5.43,2.47-11.26,3.71-17.49,3.71-5.59,0-10.77-1-15.55-2.98-4.78-1.99-8.89-4.75-12.33-8.3-3.44-3.54-6.15-7.74-8.14-12.57-1.99-4.83-2.98-10.1-2.98-15.79s.97-10.96,2.9-15.79c1.93-4.83,4.62-9.03,8.06-12.57,3.44-3.54,7.47-6.31,12.09-8.3,4.62-1.99,9.61-2.98,14.99-2.98,5.91,0,11.12,1,15.63,2.98,4.51,1.99,8.27,4.67,11.28,8.06,3.01,3.38,5.29,7.33,6.85,11.85,1.56,4.51,2.34,9.35,2.34,14.5Zm-11.12-3.54c-.32-7.09-2.61-12.97-6.85-17.65-4.25-4.67-10.29-7.01-18.13-7.01-3.65,0-7.04.67-10.15,2.01-3.12,1.34-5.86,3.17-8.22,5.48-2.37,2.31-4.25,4.94-5.64,7.9-1.4,2.96-2.2,6.04-2.42,9.27h51.41Z"/>
    <path class="cls-2" d="m446.31,364.68c-.11-3.22-.27-6.12-.48-8.7h10.48c.21,2.04.38,4.3.48,6.77.11,2.47.16,4.51.16,6.12h.32c2.15-4.4,5.37-7.98,9.67-10.72,4.3-2.74,9.13-4.11,14.5-4.11,1.39,0,2.66.06,3.79.16,1.13.11,2.28.32,3.46.64l-1.45,10.48c-.64-.21-1.72-.43-3.22-.64-1.51-.21-3.01-.32-4.51-.32-2.9,0-5.7.54-8.38,1.61-2.69,1.07-5.02,2.76-7.01,5.06-1.99,2.3-3.6,5.25-4.83,8.84-1.24,3.59-1.85,7.91-1.85,12.94v38.59h-10.96v-58.82c0-2.04-.06-4.67-.16-7.9Z"/>
    <path class="cls-2" d="m570.24,391.43v2.42c0,.86-.05,1.77-.16,2.74h-62.53c.11,3.76.86,7.31,2.26,10.64,1.4,3.33,3.33,6.23,5.8,8.7,2.47,2.47,5.37,4.43,8.7,5.88,3.33,1.45,6.93,2.18,10.8,2.18,5.69,0,10.61-1.31,14.75-3.95,4.13-2.63,7.28-5.67,9.43-9.11l8.22,6.45c-4.51,5.7-9.48,9.78-14.91,12.25-5.43,2.47-11.26,3.71-17.49,3.71-5.59,0-10.77-1-15.55-2.98-4.78-1.99-8.89-4.75-12.33-8.3-3.44-3.54-6.15-7.74-8.14-12.57-1.99-4.83-2.98-10.1-2.98-15.79s.97-10.96,2.9-15.79c1.93-4.83,4.62-9.03,8.06-12.57,3.44-3.54,7.47-6.31,12.09-8.3,4.62-1.99,9.61-2.98,14.99-2.98,5.91,0,11.12,1,15.63,2.98,4.51,1.99,8.27,4.67,11.28,8.06,3.01,3.38,5.29,7.33,6.85,11.85,1.56,4.51,2.34,9.35,2.34,14.5Zm-11.12-3.54c-.32-7.09-2.61-12.97-6.85-17.65-4.25-4.67-10.29-7.01-18.13-7.01-3.65,0-7.04.67-10.15,2.01-3.12,1.34-5.86,3.17-8.22,5.48-2.37,2.31-4.25,4.94-5.64,7.9-1.4,2.96-2.2,6.04-2.42,9.27h51.41Z"/>
    <path class="cls-2" d="m655.82,418.67c-3.22,4.83-7.41,8.49-12.57,10.96s-10.48,3.71-15.96,3.71c-5.91,0-11.26-1.02-16.04-3.06-4.78-2.04-8.86-4.83-12.25-8.38-3.38-3.54-6.02-7.74-7.9-12.57-1.88-4.83-2.82-10.04-2.82-15.63s.94-10.8,2.82-15.63c1.88-4.83,4.51-9.03,7.9-12.57,3.38-3.54,7.47-6.34,12.25-8.38,4.78-2.04,10.12-3.06,16.04-3.06,5.48,0,10.8,1.26,15.96,3.79,5.16,2.53,9.35,6.26,12.57,11.2h.32v-59.47h10.96v121.84h-10.96v-12.73h-.32Zm-55.92-24.98c0,4.19.64,8.14,1.93,11.85,1.29,3.71,3.14,6.93,5.56,9.67,2.42,2.74,5.4,4.89,8.94,6.45,3.55,1.56,7.58,2.34,12.09,2.34,4.19,0,8.06-.78,11.6-2.34,3.55-1.56,6.61-3.68,9.19-6.37,2.58-2.68,4.59-5.88,6.04-9.59,1.45-3.71,2.18-7.71,2.18-12.01s-.72-8.3-2.18-12.01c-1.45-3.71-3.46-6.93-6.04-9.67-2.58-2.74-5.64-4.89-9.19-6.45-3.55-1.56-7.41-2.34-11.6-2.34-4.51,0-8.54.81-12.09,2.42-3.54,1.61-6.53,3.79-8.94,6.53-2.42,2.74-4.27,5.96-5.56,9.67-1.29,3.71-1.93,7.66-1.93,11.85Z"/>
  </g>
</svg>